:SAMPLES-PER-SECOND 30
:FULLY-SPECIFIED
:DEGREES
687
root  34.2095 37.9184 -15.4522 -169.172 -72.0773 166.01
RightUpLeg  15.0248 -14.6717 -11.6149
RightLeg  37.358 9.22617 7.22195
RightFoot  -0.159561 -1.37537 14.0303
RightToes  0.00048216 0.542163 -0.142577
Spine  8.46903 2.52203 -0.572402
Spine1  8.79996 3.65369 -3.32123
HEad  -8.74833 13.762 -2.33352
LeftShoulder1  8.14849 -11.95 -45.979
LeftArm  -8.82221 25.1079 -27.1425
LeftForeArm  31.0712 -14.4443 -4.41042
LeftHand  -0.25398 0.0180481 5.50724
RightShoulder  5.15399 8.77849 35.9822
RightArm  5.2803 -25.7539 37.8752
RightForeArm  102.067 79.6664 102.263
RightHand  -2.55444 7.16477 -23.7046
LeftUpLeg  -22.6431 14.4473 -16.5964
LeftLeg  18.2022 9.95303 4.11219
LeftFoot  -0.411265 -1.11078 11.5904
LeftToes  1.06246e-005 4.65856e-005 -8.18502e-006
688
root  32.7858 38.0261 -15.8636 -166.168 -71.5092 162.538
RightUpLeg  7.68502 -9.76167 -11.4
RightLeg  48.5681 6.26675 7.22922
RightFoot  11.2602 -2.84208 14.6507
RightToes  0.00048216 0.542163 -0.142577
Spine  9.15115 2.56216 -1.17389
Spine1  8.89291 3.95815 -4.88247
HEad  -7.71904 13.9708 -3.22037
LeftShoulder1  8.10677 -11.947 -45.7447
LeftArm  -10.0296 24.3879 -27.2079
LeftForeArm  31.3167 -13.4007 -4.39393
LeftHand  -0.25398 0.0180481 5.50724
RightShoulder  5.13497 8.84005 35.627
RightArm  5.16025 -25.4429 39.1546
RightForeArm  98.2995 79.5905 101.023
RightHand  -2.68016 7.42212 -24.3489
LeftUpLeg  -20.6855 14.6334 -17.2074
LeftLeg  20.1952 10.8399 4.71394
LeftFoot  -3.50801 -0.778083 11.6564
LeftToes  1.06246e-005 4.65856e-005 -8.18502e-006
689
root  31.3809 38.1516 -16.2618 -165.126 -70.822 160.809
RightUpLeg  0.589667 -5.68164 -11.3489
RightLeg  57.9092 3.65026 5.78907
RightFoot  15.0211 -2.85681 12.5665
RightToes  0.00048216 0.542163 -0.142577
Spine  9.99004 2.60927 -1.92617
Spine1  8.98784 3.85435 -5.24263
HEad  -7.05553 14.8195 -4.82209
LeftShoulder1  8.04124 -11.8484 -45.6634
LeftArm  -10.4135 23.7743 -27.8168
LeftForeArm  31.1399 -14.0723 -4.21775
LeftHand  -0.25398 0.0180481 5.50724
RightShoulder  5.08128 8.8504 35.1659
RightArm  6.3108 -23.7229 39.3345
RightForeArm  97.6998 79.4683 102.149
RightHand  -2.66925 7.39273 -24.3024
LeftUpLeg  -18.0074 15.1842 -17.2734
LeftLeg  21.2671 10.9033 4.86681
LeftFoot  -6.33038 -0.483213 11.8465
LeftToes  1.06246e-005 4.65856e-005 -8.18502e-006
690
root  29.8874 38.5265 -16.6613 -166.169 -71.35 161.136
RightUpLeg  -5.13373 -3.48057 -10.7916
RightLeg  62.8985 1.1724 1.97235
RightFoot  12.677 -1.79955 8.80973
RightToes  0.00048216 0.542163 -0.142577
Spine  10.7521 2.10641 -1.9253
Spine1  8.74674 3.13044 -4.37999
HEad  -6.40549 15.8635 -6.33302
LeftShoulder1  8.03152 -11.813 -45.7151
LeftArm  -9.65229 23.2335 -28.4688
LeftForeArm  30.6343 -15.972 -4.01243
LeftHand  -0.25398 0.0180481 5.50724
RightShoulder  4.97098 8.73454 34.662
RightArm  7.44662 -21.5894 39.1071
RightForeArm  99.8335 79.5082 102.853
RightHand  -2.47812 7.00917 -23.2984
LeftUpLeg  -13.605 14.6973 -15.8989
LeftLeg  19.9747 11.2093 4.17462
LeftFoot  -7.85409 -0.291704 11.0833
LeftToes  1.06246e-005 4.65856e-005 -8.18502e-006
691
root  28.4185 38.9214 -17.0223 -168.308 -72.7784 162.887
RightUpLeg  -10.1443 -2.39815 -9.75985
RightLeg  63.7189 -0.82485 -2.36226
RightFoot  8.72206 -0.915137 5.53075
RightToes  0.00048216 0.542163 -0.142577
Spine  11.359 1.39592 -0.927388
Spine1  8.43182 2.3213 -3.70801
HEad  -5.50433 16.545 -7.13046
LeftShoulder1  8.0411 -11.8837 -45.5545
LeftArm  -7.99045 22.4663 -29.0954
LeftForeArm  30.1541 -18.5685 -3.71279
LeftHand  -0.25398 0.0180481 5.50724
RightShoulder  4.85557 8.60367 34.1549
RightArm  7.4322 -20.3363 39.054
RightForeArm  104.066 79.6187 103.863
RightHand  -2.31388 6.79421 -22.1917
LeftUpLeg  -9.13675 12.9934 -13.7927
LeftLeg  18.1774 12.2024 3.06082
LeftFoot  -9.05993 -0.142093 9.86524
LeftToes  1.06246e-005 4.65856e-005 -8.18502e-006
692
root  26.9812 39.1978 -17.3756 -170.728 -74.3497 165.202
RightUpLeg  -14.7075 -1.52918 -8.73016
RightLeg  61.1742 -2.1058 -4.67349
RightFoot  6.22864 -0.444658 3.16673
RightToes  0.00048216 0.542163 -0.142577
Spine  11.8081 0.878392 0.388106
Spine1  8.11822 1.7854 -3.50262
HEad  -4.44061 16.7174 -7.28329
LeftShoulder1  7.99137 -11.9412 -45.087
LeftArm  -6.4573 21.4912 -29.7476
LeftForeArm  30.2837 -21.8692 -3.44982
LeftHand  -0.25398 0.0180481 5.50724
RightShoulder  4.8061 8.58656 33.8056
RightArm  6.48445 -20.362 38.9521
RightForeArm  108.818 79.5048 107.359
RightHand  -2.32242 6.95915 -21.983
LeftUpLeg  -5.2455 10.173 -11.7766
LeftLeg  16.7086 13.8541 1.79074
LeftFoot  -10.3699 -0.0152673 9.24116
LeftToes  1.06246e-005 4.65856e-005 -8.18502e-006
693
root  25.5351 39.4121 -17.7488 -173.255 -75.8617 167.587
RightUpLeg  -18.2402 -0.91762 -7.91067
RightLeg  55.5387 -2.94198 -5.0346
RightFoot  4.61415 -0.182541 1.53473
RightToes  0.00048216 0.542163 -0.142577
Spine  12.2945 0.55465 1.40993
Spine1  7.80605 1.38173 -2.99878
HEad  -3.55132 16.4765 -7.1243
LeftShoulder1  7.91227 -11.9134 -44.706
LeftArm  -6.35911 20.4021 -30.1108
LeftForeArm  31.8391 -25.7777 -3.8062
LeftHand  -0.25398 0.0180481 5.50724
RightShoulder  4.8076 8.6225 33.7008
RightArm  5.37856 -20.9871 38.5573
RightForeArm  111.493 79.1247 111.87
RightHand  -2.41898 7.13403 -22.5555
LeftUpLeg  -1.31622 7.12456 -10.1565
LeftLeg  14.851 15.4009 0.522578
LeftFoot  -11.5461 0.084915 8.77316
LeftToes  1.06246e-005 4.65856e-005 -8.18502e-006
694
root  24.0816 39.489 -18.1564 -174.596 -77.3227 168.592
RightUpLeg  -20.3006 -1.07799 -7.59142
RightLeg  47.0532 -3.82326 -4.70275
RightFoot  2.80925 -0.164442 1.49736
RightToes  0.00048216 0.542163 -0.142577
Spine  12.8275 0.366861 1.5462
Spine1  7.73902 0.944861 -2.16194
HEad  -3.13092 16.2966 -6.99191
LeftShoulder1  7.89386 -11.8701 -44.7281
LeftArm  -6.85245 19.0354 -29.9629
LeftForeArm  33.6792 -29.7377 -4.61208
LeftHand  -0.25398 0.0180481 5.50724
RightShoulder  4.80087 8.60079 33.7163
RightArm  4.33638 -21.4848 38.0889
RightForeArm  111.341 78.8145 114.204
RightHand  -2.52159 7.24225 -23.2793
LeftUpLeg  2.36135 5.17573 -9.14223
LeftLeg  13.6104 15.8937 -0.35435
LeftFoot  -13.1523 0.200375 7.75117
LeftToes  1.06246e-005 4.65856e-005 -8.18502e-006
